 <svg
        xmlns="http://www.w3.org/2000/svg"
        width="44.186"
        height="44.183"
        viewBox="0 0 44.186 44.183"
      >
        <path
          id="Path_354"
          data-name="Path 354"
          d="M36.959,32.107,53.48,15.586a2.421,2.421,0,0,0,0-3.417l-1.448-1.447a2.423,2.423,0,0,0-3.418,0l-16.52,16.52L15.572,10.722a2.421,2.421,0,0,0-3.417,0l-1.448,1.447a2.418,2.418,0,0,0,0,3.417L27.228,32.107,10.707,48.628a2.424,2.424,0,0,0,0,3.418l1.448,1.447a2.421,2.421,0,0,0,3.417,0l16.521-16.52,16.52,16.52a2.4,2.4,0,0,0,1.709.706h0a2.4,2.4,0,0,0,1.709-.706l1.448-1.447a2.423,2.423,0,0,0,0-3.418Z"
          transform="translate(-10 -10.016)"
          fill="#fff"
        ></path>
              </svg>